<?xml version="1.0" encoding="utf-8"?>
<!-- Uploaded to: SVG Repo, www.svgrepo.com, Generator: SVG Repo Mixer Tools -->
<svg fill="#000000" width="800px" height="800px" viewBox="0 0 32 32" version="1.1" xmlns="http://www.w3.org/2000/svg">
<title>perspective-dice-six-two</title>
<path d="M15.748 17.37c-0.133-0.334-0.318-0.658-0.538-0.943l-10.393-6.233c-0.716-0.22-1.25 0.214-1.25 1.1v9.84c0 1.034 0.726 2.291 1.621 2.808l9.168 5.294c0.591 0.341 1.108 0.274 1.391-0.108v-11.76h-0zM11.176 20.615c-0.002 0.861-0.631 1.194-1.407 0.745s-1.403-1.511-1.401-2.372c0-0.002 0-0.004 0-0.006 0.002-0.861 0.631-1.194 1.407-0.745s1.403 1.511 1.401 2.372c0 0.002 0 0.004 0 0.006zM27.111 8.247l-9.531-5.514c-0.895-0.518-2.346-0.518-3.241 0l-9.531 5.514c-0.46 0.266-0.683 0.617-0.67 0.966l11.298 6.775c0.369 0.050 0.754 0.047 1.12-0.010l10.898-6.11c0.531-0.51 0.417-1.181-0.343-1.621zM17.398 14.378c-0.779 0.462-2.041 0.462-2.82 0s-0.779-1.211 0-1.673c0.779-0.462 2.041-0.462 2.82 0s0.779 1.211 0 1.673zM17.398 5.586c-0.779 0.462-2.041 0.462-2.82 0s-0.779-1.211 0-1.673c0.779-0.462 2.041-0.462 2.82 0s0.779 1.211 0 1.673zM27.847 10.212l-11.114 6.231c-0.301 0.394-0.535 0.86-0.658 1.324v11.119c0.227 0.587 0.823 0.756 1.524 0.351l9.168-5.294c0.895-0.517 1.621-1.774 1.621-2.808v-9.84c0-0.554-0.209-0.932-0.541-1.083zM20.092 24.856c0.002 0.861-0.626 1.923-1.401 2.372s-1.405 0.116-1.407-0.745c0-0.002 0-0.004 0-0.006-0.002-0.861 0.626-1.923 1.401-2.372s1.405-0.116 1.407 0.745c0 0.002 0 0.004 0 0.006zM23.587 18.988c0.002 0.861-0.626 1.923-1.401 2.372s-1.405 0.116-1.407-0.745c0-0.002 0-0.004 0-0.006-0.002-0.861 0.626-1.923 1.401-2.372s1.405-0.116 1.407 0.745c0 0.002 0 0.004 0 0.006zM27.081 13.164c0.002 0.861-0.626 1.923-1.401 2.372s-1.405 0.116-1.407-0.745c0-0.002 0-0.004 0-0.006-0.002-0.861 0.626-1.923 1.401-2.372s1.405-0.116 1.407 0.745c0 0.002 0 0.004 0 0.006z"></path>
</svg>